<svg width="202" height="56" viewBox="0 0 202 56" fill="none" xmlns="http://www.w3.org/2000/svg">
<path d="M75.2171 36.24C74.0491 36.24 73.0171 36.08 72.1211 35.76C71.2251 35.424 70.3691 34.888 69.5531 34.152C69.2171 33.864 69.0491 33.536 69.0491 33.168C69.0491 32.88 69.1611 32.624 69.3851 32.4C69.6091 32.16 69.8731 32.04 70.1771 32.04C70.4491 32.04 70.6811 32.128 70.8731 32.304C71.5131 32.896 72.1691 33.336 72.8411 33.624C73.5291 33.896 74.3051 34.032 75.1691 34.032C76.1771 34.032 77.0251 33.8 77.7131 33.336C78.4171 32.872 78.7691 32.288 78.7691 31.584C78.7531 30.752 78.4011 30.112 77.7131 29.664C77.0411 29.2 76.0091 28.816 74.6171 28.512C72.9691 28.176 71.6971 27.624 70.8011 26.856C69.9211 26.088 69.4811 25.024 69.4811 23.664C69.4811 22.72 69.7291 21.896 70.2251 21.192C70.7211 20.472 71.4091 19.92 72.2891 19.536C73.1691 19.152 74.1611 18.96 75.2651 18.96C76.2571 18.96 77.1931 19.12 78.0731 19.44C78.9531 19.76 79.6651 20.184 80.2091 20.712C80.5771 21.032 80.7611 21.376 80.7611 21.744C80.7611 22.032 80.6491 22.288 80.4251 22.512C80.2171 22.736 79.9611 22.848 79.6571 22.848C79.4331 22.848 79.2491 22.784 79.1051 22.656C78.6891 22.24 78.1131 21.888 77.3771 21.6C76.6411 21.312 75.9371 21.168 75.2651 21.168C74.1931 21.168 73.3371 21.392 72.6971 21.84C72.0731 22.272 71.7611 22.848 71.7611 23.568C71.7611 24.352 72.0731 24.952 72.6971 25.368C73.3371 25.784 74.2811 26.136 75.5291 26.424C76.7771 26.696 77.7931 27.016 78.5771 27.384C79.3771 27.752 79.9931 28.264 80.4251 28.92C80.8571 29.576 81.0731 30.432 81.0731 31.488C81.0731 32.416 80.8091 33.24 80.2811 33.96C79.7691 34.68 79.0651 35.24 78.1691 35.64C77.2731 36.04 76.2891 36.24 75.2171 36.24ZM86.4978 25.656V32.808C86.4978 33.608 86.8578 34.008 87.5778 34.008C87.6898 34.008 87.8418 33.984 88.0338 33.936C88.2258 33.872 88.3778 33.84 88.4898 33.84C88.6978 33.84 88.8738 33.928 89.0178 34.104C89.1618 34.28 89.2338 34.504 89.2338 34.776C89.2338 35.112 89.0418 35.4 88.6578 35.64C88.2738 35.88 87.8418 36 87.3618 36C86.8338 36 86.3458 35.944 85.8978 35.832C85.4658 35.72 85.0738 35.44 84.7218 34.992C84.3858 34.528 84.2178 33.832 84.2178 32.904V25.656H82.8258C82.5218 25.656 82.2658 25.56 82.0578 25.368C81.8658 25.16 81.7698 24.904 81.7698 24.6C81.7698 24.296 81.8658 24.048 82.0578 23.856C82.2658 23.664 82.5218 23.568 82.8258 23.568H84.2178V21.552C84.2178 21.232 84.3218 20.96 84.5298 20.736C84.7538 20.512 85.0338 20.4 85.3698 20.4C85.6898 20.4 85.9538 20.512 86.1618 20.736C86.3858 20.96 86.4978 21.232 86.4978 21.552V23.568H88.4898C88.7938 23.568 89.0418 23.672 89.2338 23.88C89.4418 24.072 89.5458 24.32 89.5458 24.624C89.5458 24.928 89.4418 25.176 89.2338 25.368C89.0418 25.56 88.7938 25.656 88.4898 25.656H86.4978ZM101.687 23.256C102.023 23.256 102.295 23.368 102.503 23.592C102.727 23.8 102.839 24.08 102.839 24.432V34.848C102.839 35.168 102.727 35.44 102.503 35.664C102.295 35.888 102.023 36 101.687 36C101.351 36 101.079 35.896 100.871 35.688C100.663 35.464 100.559 35.184 100.559 34.848V34.224C100.143 34.784 99.575 35.264 98.855 35.664C98.135 36.048 97.359 36.24 96.527 36.24C95.439 36.24 94.447 35.96 93.551 35.4C92.671 34.84 91.975 34.064 91.463 33.072C90.967 32.064 90.719 30.936 90.719 29.688C90.719 28.44 90.967 27.32 91.463 26.328C91.975 25.32 92.671 24.536 93.551 23.976C94.431 23.416 95.399 23.136 96.455 23.136C97.303 23.136 98.087 23.312 98.807 23.664C99.543 24.016 100.127 24.464 100.559 25.008V24.432C100.559 24.096 100.663 23.816 100.871 23.592C101.079 23.368 101.351 23.256 101.687 23.256ZM96.791 34.128C97.543 34.128 98.207 33.936 98.783 33.552C99.375 33.168 99.831 32.64 100.151 31.968C100.487 31.296 100.655 30.536 100.655 29.688C100.655 28.856 100.487 28.104 100.151 27.432C99.831 26.76 99.375 26.232 98.783 25.848C98.207 25.448 97.543 25.248 96.791 25.248C96.039 25.248 95.367 25.44 94.775 25.824C94.199 26.208 93.743 26.736 93.407 27.408C93.087 28.08 92.927 28.84 92.927 29.688C92.927 30.536 93.087 31.296 93.407 31.968C93.743 32.64 94.199 33.168 94.775 33.552C95.367 33.936 96.039 34.128 96.791 34.128ZM112.853 19.2C114.357 19.2 115.645 19.576 116.717 20.328C117.789 21.08 118.597 22.096 119.141 23.376C119.685 24.64 119.957 26.048 119.957 27.6C119.957 29.168 119.685 30.592 119.141 31.872C118.597 33.136 117.789 34.144 116.717 34.896C115.645 35.632 114.357 36 112.853 36H106.949C106.629 36 106.357 35.888 106.133 35.664C105.909 35.44 105.797 35.168 105.797 34.848V20.352C105.797 20.032 105.909 19.76 106.133 19.536C106.357 19.312 106.629 19.2 106.949 19.2H112.853ZM112.613 33.792C114.245 33.792 115.469 33.216 116.285 32.064C117.101 30.896 117.509 29.408 117.509 27.6C117.509 25.808 117.093 24.328 116.261 23.16C115.445 21.992 114.229 21.408 112.613 21.408H108.173V33.792H112.613ZM133.22 29.232C133.204 29.52 133.084 29.768 132.86 29.976C132.636 30.168 132.372 30.264 132.068 30.264H123.62C123.732 31.432 124.172 32.368 124.94 33.072C125.724 33.776 126.676 34.128 127.796 34.128C128.564 34.128 129.188 34.016 129.668 33.792C130.148 33.568 130.572 33.28 130.94 32.928C131.18 32.784 131.412 32.712 131.636 32.712C131.908 32.712 132.132 32.808 132.308 33C132.5 33.192 132.596 33.416 132.596 33.672C132.596 34.008 132.436 34.312 132.116 34.584C131.652 35.048 131.036 35.44 130.268 35.76C129.5 36.08 128.716 36.24 127.916 36.24C126.62 36.24 125.476 35.968 124.484 35.424C123.508 34.88 122.748 34.12 122.204 33.144C121.676 32.168 121.412 31.064 121.412 29.832C121.412 28.488 121.684 27.312 122.228 26.304C122.788 25.28 123.516 24.496 124.412 23.952C125.324 23.408 126.3 23.136 127.34 23.136C128.364 23.136 129.324 23.4 130.22 23.928C131.116 24.456 131.836 25.184 132.38 26.112C132.924 27.04 133.204 28.08 133.22 29.232ZM127.34 25.248C126.444 25.248 125.668 25.504 125.012 26.016C124.356 26.512 123.924 27.288 123.716 28.344H130.796V28.152C130.716 27.304 130.332 26.608 129.644 26.064C128.972 25.52 128.204 25.248 127.34 25.248ZM141.411 23.136C141.827 23.136 142.187 23.248 142.491 23.472C142.795 23.68 142.947 23.944 142.947 24.264C142.947 24.648 142.843 24.944 142.635 25.152C142.443 25.344 142.203 25.44 141.915 25.44C141.771 25.44 141.555 25.392 141.267 25.296C140.931 25.184 140.667 25.128 140.475 25.128C139.979 25.128 139.491 25.304 139.011 25.656C138.547 25.992 138.163 26.464 137.859 27.072C137.571 27.664 137.427 28.328 137.427 29.064V34.848C137.427 35.168 137.315 35.44 137.091 35.664C136.883 35.888 136.611 36 136.275 36C135.939 36 135.667 35.896 135.459 35.688C135.251 35.464 135.147 35.184 135.147 34.848V24.576C135.147 24.256 135.251 23.984 135.459 23.76C135.683 23.536 135.955 23.424 136.275 23.424C136.611 23.424 136.883 23.536 137.091 23.76C137.315 23.984 137.427 24.256 137.427 24.576V25.8C137.779 25.016 138.307 24.384 139.011 23.904C139.715 23.408 140.515 23.152 141.411 23.136ZM159.83 33.768C160.166 33.768 160.438 33.872 160.646 34.08C160.87 34.288 160.982 34.56 160.982 34.896C160.982 35.216 160.87 35.48 160.646 35.688C160.438 35.896 160.166 36 159.83 36H151.718C151.382 36 151.102 35.888 150.878 35.664C150.67 35.44 150.566 35.168 150.566 34.848V20.352C150.566 20.032 150.678 19.76 150.902 19.536C151.126 19.312 151.414 19.2 151.766 19.2C152.086 19.2 152.358 19.312 152.582 19.536C152.822 19.76 152.942 20.032 152.942 20.352V33.768H159.83ZM172.953 23.256C173.289 23.256 173.561 23.368 173.769 23.592C173.993 23.8 174.105 24.08 174.105 24.432V34.848C174.105 35.168 173.993 35.44 173.769 35.664C173.561 35.888 173.289 36 172.953 36C172.617 36 172.345 35.896 172.137 35.688C171.929 35.464 171.825 35.184 171.825 34.848V34.224C171.409 34.784 170.841 35.264 170.121 35.664C169.401 36.048 168.625 36.24 167.793 36.24C166.705 36.24 165.713 35.96 164.817 35.4C163.937 34.84 163.241 34.064 162.729 33.072C162.233 32.064 161.985 30.936 161.985 29.688C161.985 28.44 162.233 27.32 162.729 26.328C163.241 25.32 163.937 24.536 164.817 23.976C165.697 23.416 166.665 23.136 167.721 23.136C168.569 23.136 169.353 23.312 170.073 23.664C170.809 24.016 171.393 24.464 171.825 25.008V24.432C171.825 24.096 171.929 23.816 172.137 23.592C172.345 23.368 172.617 23.256 172.953 23.256ZM168.057 34.128C168.809 34.128 169.473 33.936 170.049 33.552C170.641 33.168 171.097 32.64 171.417 31.968C171.753 31.296 171.921 30.536 171.921 29.688C171.921 28.856 171.753 28.104 171.417 27.432C171.097 26.76 170.641 26.232 170.049 25.848C169.473 25.448 168.809 25.248 168.057 25.248C167.305 25.248 166.633 25.44 166.041 25.824C165.465 26.208 165.009 26.736 164.673 27.408C164.353 28.08 164.193 28.84 164.193 29.688C164.193 30.536 164.353 31.296 164.673 31.968C165.009 32.64 165.465 33.168 166.041 33.552C166.633 33.936 167.305 34.128 168.057 34.128ZM183.087 23.136C184.175 23.136 185.159 23.416 186.039 23.976C186.919 24.536 187.607 25.312 188.103 26.304C188.615 27.296 188.871 28.416 188.871 29.664C188.871 30.912 188.615 32.04 188.103 33.048C187.607 34.056 186.919 34.84 186.039 35.4C185.159 35.96 184.191 36.24 183.135 36.24C182.303 36.24 181.527 36.056 180.807 35.688C180.087 35.32 179.503 34.864 179.055 34.32V35.016C179.055 35.336 178.943 35.608 178.719 35.832C178.511 36.056 178.239 36.168 177.903 36.168C177.583 36.168 177.311 36.064 177.087 35.856C176.879 35.632 176.775 35.352 176.775 35.016V19.392C176.775 19.056 176.879 18.784 177.087 18.576C177.295 18.352 177.567 18.24 177.903 18.24C178.239 18.24 178.511 18.352 178.719 18.576C178.943 18.8 179.055 19.072 179.055 19.392V25.248C179.439 24.672 179.999 24.176 180.735 23.76C181.471 23.344 182.255 23.136 183.087 23.136ZM182.823 34.128C183.559 34.128 184.223 33.936 184.815 33.552C185.407 33.152 185.863 32.616 186.183 31.944C186.519 31.256 186.687 30.496 186.687 29.664C186.687 28.832 186.519 28.08 186.183 27.408C185.863 26.736 185.407 26.208 184.815 25.824C184.223 25.44 183.559 25.248 182.823 25.248C182.071 25.248 181.399 25.44 180.807 25.824C180.215 26.208 179.751 26.736 179.415 27.408C179.095 28.064 178.935 28.816 178.935 29.664C178.935 30.512 179.095 31.272 179.415 31.944C179.751 32.616 180.215 33.152 180.807 33.552C181.399 33.936 182.071 34.128 182.823 34.128ZM190.077 34.032C189.933 33.808 189.861 33.592 189.861 33.384C189.861 33.064 190.029 32.792 190.365 32.568C190.525 32.456 190.709 32.4 190.917 32.4C191.205 32.4 191.469 32.52 191.709 32.76C192.189 33.304 192.701 33.712 193.245 33.984C193.805 34.256 194.469 34.392 195.237 34.392C195.845 34.376 196.381 34.24 196.845 33.984C197.309 33.712 197.541 33.28 197.541 32.688C197.541 32.144 197.301 31.728 196.821 31.44C196.357 31.152 195.669 30.888 194.757 30.648C193.861 30.408 193.117 30.16 192.525 29.904C191.933 29.632 191.429 29.248 191.013 28.752C190.613 28.24 190.413 27.576 190.413 26.76C190.413 26.04 190.613 25.408 191.013 24.864C191.429 24.32 191.973 23.896 192.645 23.592C193.333 23.288 194.077 23.136 194.877 23.136C195.645 23.136 196.405 23.28 197.157 23.568C197.925 23.856 198.549 24.296 199.029 24.888C199.221 25.112 199.317 25.344 199.317 25.584C199.317 25.84 199.189 26.088 198.933 26.328C198.773 26.472 198.573 26.544 198.333 26.544C198.045 26.544 197.813 26.448 197.637 26.256C197.301 25.872 196.885 25.576 196.389 25.368C195.909 25.16 195.373 25.056 194.781 25.056C194.173 25.056 193.653 25.184 193.221 25.44C192.805 25.68 192.597 26.096 192.597 26.688C192.613 27.248 192.853 27.664 193.317 27.936C193.797 28.208 194.525 28.472 195.501 28.728C196.349 28.952 197.053 29.192 197.613 29.448C198.173 29.704 198.645 30.088 199.029 30.6C199.413 31.096 199.605 31.752 199.605 32.568C199.605 33.32 199.389 33.976 198.957 34.536C198.525 35.08 197.957 35.504 197.253 35.808C196.565 36.096 195.829 36.24 195.045 36.24C194.037 36.24 193.101 36.064 192.237 35.712C191.389 35.36 190.669 34.8 190.077 34.032Z" fill="white"/>
<path d="M0.390015 23.896L43.8048 40.4299L52.137 32.1039L8.72226 15.5699L0.390015 23.896Z" fill="url(#paint0_linear)"/>
<path style="mix-blend-mode:multiply" opacity="0.59" d="M52.137 32.104L37.3939 37.9863L43.8048 40.43L52.137 32.104Z" fill="url(#paint1_linear)"/>
<path style="mix-blend-mode:multiply" opacity="0.59" d="M0.390015 23.896L15.2326 18.051L8.72226 15.5699L0.390015 23.896Z" fill="url(#paint2_linear)"/>
<path d="M52.137 23.8959V20.0967C52.137 17.9616 51.5751 15.8642 50.5076 14.0152C49.4401 12.1662 47.9047 10.6307 46.0557 9.56323L32.3448 1.64758C30.4954 0.581308 28.3982 0.0200195 26.2635 0.0200195C24.1288 0.0200195 22.0315 0.581308 20.1822 1.64758L16.8866 3.55032L52.137 23.8959Z" fill="url(#paint3_linear)"/>
<path style="mix-blend-mode:multiply" opacity="0.59" d="M19.4857 5.04898L28.1911 10.0732L30.2181 8.44405C31.7363 7.32223 33.495 6.56959 35.3547 6.24578C37.2144 5.92198 39.1239 6.03593 40.9319 6.57863L31.6794 3.00944C31.1793 2.81226 30.6661 2.6502 30.1435 2.52443C29.8824 2.46225 29.6212 2.40628 29.36 2.36276C28.0582 2.14116 26.7292 2.13067 25.424 2.33167C24.121 2.54032 22.8608 2.96039 21.6931 3.57529C21.4568 3.69966 21.2206 3.83024 20.9967 3.96704C20.535 4.24588 20.0925 4.5554 19.6723 4.89353L19.4857 5.04898Z" fill="url(#paint4_linear)"/>
<path d="M40.9319 6.60352L32.3447 1.62904C31.8777 1.35973 31.3937 1.12088 30.8959 0.913967C30.6472 0.814478 30.3985 0.721199 30.1435 0.634145C27.6259 -0.211382 24.901 -0.211382 22.3833 0.634145C22.1284 0.721199 21.8797 0.814478 21.6309 0.913967C21.1331 1.12088 20.6492 1.35973 20.1821 1.62904L6.50232 9.54469C4.65332 10.6122 3.11791 12.1476 2.05041 13.9967C0.982921 15.8457 0.420961 17.9431 0.421021 20.0781V23.8774L30.0938 6.75275C31.7656 5.89113 33.6146 5.42921 35.4953 5.40332C37.3759 5.37742 39.237 5.78826 40.9319 6.60352Z" fill="#BE38AC"/>
<path d="M0.390015 32.104V35.9033C0.389955 38.0383 0.951915 40.1357 2.01941 41.9847C3.0869 43.8338 4.62231 45.3692 6.47131 46.4367L20.1511 54.3524C22.0005 55.4186 24.0977 55.9799 26.2324 55.9799C28.3671 55.9799 30.4644 55.4186 32.3137 54.3524L35.6093 52.4496L0.390015 32.104Z" fill="#BE38AC"/>
<path style="mix-blend-mode:multiply" opacity="0.59" d="M33.0413 50.951L24.336 45.9268L22.3089 47.5559C20.7907 48.6777 19.032 49.4304 17.1723 49.7542C15.3126 50.078 13.4031 49.964 11.5951 49.4213L20.8476 52.9967C21.3488 53.1891 21.8618 53.349 22.3835 53.4755C22.6446 53.5377 22.9058 53.5937 23.167 53.6372C24.4688 53.8588 25.7978 53.8693 27.103 53.6683C28.4061 53.4596 29.6663 53.0396 30.8339 52.4247C31.0702 52.3003 31.3065 52.1697 31.5303 52.0329C31.992 51.7541 32.4345 51.4446 32.8548 51.1064L33.0413 50.951Z" fill="url(#paint5_linear)"/>
<path d="M11.5951 49.3965L20.1823 54.371C20.6493 54.6403 21.1333 54.8792 21.6311 55.0861C21.8798 55.1856 22.1285 55.2789 22.3835 55.3659C24.9011 56.2114 27.626 56.2114 30.1437 55.3659C30.3986 55.2789 30.6473 55.1856 30.8961 55.0861C31.3939 54.8792 31.8778 54.6403 32.3449 54.371L46.0558 46.4554C47.9048 45.3878 49.4402 43.8524 50.5077 42.0034C51.5752 40.1544 52.1371 38.0569 52.1371 35.9219V32.104L22.4643 49.2286C20.7899 50.0982 18.936 50.5661 17.0495 50.5952C15.163 50.6243 13.2956 50.214 11.5951 49.3965Z" fill="#BE38AC"/>
<defs>
<linearGradient id="paint0_linear" x1="0.390015" y1="27.9999" x2="52.137" y2="27.9999" gradientUnits="userSpaceOnUse">
<stop stop-color="#BE38AC"/>
<stop offset="1" stop-color="#BE38AC"/>
</linearGradient>
<linearGradient id="paint1_linear" x1="37.3939" y1="36.2639" x2="52.137" y2="36.2639" gradientUnits="userSpaceOnUse">
<stop stop-color="white"/>
<stop offset="1"/>
</linearGradient>
<linearGradient id="paint2_linear" x1="0.390015" y1="19.7361" x2="15.2326" y2="19.7361" gradientUnits="userSpaceOnUse">
<stop/>
<stop offset="1" stop-color="white"/>
</linearGradient>
<linearGradient id="paint3_linear" x1="16.8866" y1="11.9572" x2="52.137" y2="11.9572" gradientUnits="userSpaceOnUse">
<stop stop-color="#BE38AC"/>
<stop offset="1" stop-color="#BE38AC"/>
</linearGradient>
<linearGradient id="paint4_linear" x1="3042.76" y1="2341.7" x2="3226.85" y2="2093.03" gradientUnits="userSpaceOnUse">
<stop stop-color="white"/>
<stop offset="1"/>
</linearGradient>
<linearGradient id="paint5_linear" x1="-3049.81" y1="-1599.65" x2="-3233.9" y2="-1350.97" gradientUnits="userSpaceOnUse">
<stop stop-color="white"/>
<stop offset="1"/>
</linearGradient>
</defs>
</svg>
